# xmcd CD database file
#
# Track frame offsets:
#	150
#	22388
#	49387
#	77301
#	98550
#	128222
#	161877
#	196669
#	224932
#	248683
#	265248
#	289194
#
# Disc length: 4148 seconds
#
# Revision: 1
# Processed by: cddbd v1.5.2PL0 Copyright (c) Steve Scherf et al.
# Submitted via: CDex 1.70beta2
#
DISCID=b110320c
DTITLE=Timo Lassy - Moves
DYEAR=2018
DGENRE=Jazz
TTITLE0=Q and A
TTITLE1=Love Spirit
TTITLE2=Lashes
TTITLE3=Northern Express
TTITLE4=Elegy For A Free Spirit
TTITLE5=E71
TTITLE6=Moves
TTITLE7=Casa De Ferro
TTITLE8=Adriatic
TTITLE9=Harlem's Way
TTITLE10=Sundown At Sunset 
TTITLE11=Trouble
EXTD=YEAR: 2018
EXTT0=
EXTT1=
EXTT2=
EXTT3=
EXTT4=
EXTT5=
EXTT6=
EXTT7=
EXTT8=
EXTT9=
EXTT10=
EXTT11=
PLAYORDER=
